HIERARCHY
ROOT Hips
{
	OFFSET 0.000000 0.000000 0.000000
	CHANNELS 6 Xposition Yposition Zposition Zrotation Yrotation Xrotation 
	JOINT LHipJoint
	{
		OFFSET 0.000000 0.000000 0.000000
		CHANNELS 3 Zrotation Yrotation Xrotation
		JOINT LeftUpLeg
		{
			OFFSET 1.363060 -1.794630 0.839290
			CHANNELS 3 Zrotation Yrotation Xrotation
			JOINT LeftLeg
			{
				OFFSET 2.448110 -6.726130 0.000000
				CHANNELS 3 Zrotation Yrotation Xrotation
				JOINT LeftFoot
				{
					OFFSET 2.562200 -7.039590 0.000000
					CHANNELS 3 Zrotation Yrotation Xrotation
					JOINT LeftToeBase
					{
						OFFSET 0.157640 -0.433110 2.322550
						CHANNELS 3 Zrotation Yrotation Xrotation
						End Site
						{
							OFFSET 0.000000 0.000000 0.000000
						}
					}
				}
			}
		}
	}
	JOINT RHipJoint
	{
		OFFSET 0.000000 0.000000 0.000000
		CHANNELS 3 Zrotation Yrotation Xrotation
		JOINT RightUpLeg
		{
			OFFSET -1.305520 -1.794630 0.839290
			CHANNELS 3 Zrotation Yrotation Xrotation
			JOINT RightLeg
			{
				OFFSET -2.542530 -6.985550 0.000000
				CHANNELS 3 Zrotation Yrotation Xrotation
				JOINT RightFoot
				{
					OFFSET -2.568260 -7.056230 0.000000
					CHANNELS 3 Zrotation Yrotation Xrotation
					JOINT RightToeBase
					{
						OFFSET -0.164730 -0.452590 2.363150
						CHANNELS 3 Zrotation Yrotation Xrotation
						End Site
						{
							OFFSET 0.000000 0.000000 0.000000
						}
					}
				}
			}
		}
	}
	JOINT LowerBack
	{
		OFFSET 0.000000 0.000000 0.000000
		CHANNELS 3 Zrotation Yrotation Xrotation
		JOINT Spine
		{
			OFFSET 0.028270 2.035590 -0.193380
			CHANNELS 3 Zrotation Yrotation Xrotation
			JOINT Spine1
			{
				OFFSET 0.056720 2.048850 -0.042750
				CHANNELS 3 Zrotation Yrotation Xrotation
				JOINT Neck
				{
					OFFSET 0.000000 0.000000 0.000000
					CHANNELS 3 Zrotation Yrotation Xrotation
					JOINT Neck1
					{
						OFFSET -0.054170 1.746240 0.172020
						CHANNELS 3 Zrotation Yrotation Xrotation
						JOINT Head
						{
							OFFSET 0.104070 1.761360 -0.123970
							CHANNELS 3 Zrotation Yrotation Xrotation
							End Site
							{
								OFFSET 0.000000 0.000000 0.000000
							}
						}
					}
				}
				JOINT LeftShoulder
				{
					OFFSET 0.000000 0.000000 0.000000
					CHANNELS 3 Zrotation Yrotation Xrotation
					JOINT LeftArm
					{
						OFFSET 3.362410 1.200890 -0.311210
						CHANNELS 3 Zrotation Yrotation Xrotation
						JOINT LeftForeArm
						{
							OFFSET 4.983000 -0.000000 -0.000000
							CHANNELS 3 Zrotation Yrotation Xrotation
							JOINT LeftHand
							{
								OFFSET 3.483560 -0.000000 -0.000000
								CHANNELS 3 Zrotation Yrotation Xrotation
								JOINT LeftFingerBase
								{
									OFFSET 0.000000 0.000000 0.000000
									CHANNELS 3 Zrotation Yrotation Xrotation
									JOINT LeftHandIndex1
									{
										OFFSET 0.715260 -0.000000 -0.000000
										CHANNELS 3 Zrotation Yrotation Xrotation
										End Site
										{
											OFFSET 0.000000 0.000000 0.000000
										}
									}
								}
								JOINT LThumb
								{
									OFFSET 0.000000 0.000000 0.000000
									CHANNELS 3 Zrotation Yrotation Xrotation
									End Site
									{
										OFFSET 0.000000 0.000000 0.000000
									}
								}
							}
						}
					}
				}
				JOINT RightShoulder
				{
					OFFSET 0.000000 0.000000 0.000000
					CHANNELS 3 Zrotation Yrotation Xrotation
					JOINT RightArm
					{
						OFFSET -3.136600 1.374050 -0.404650
						CHANNELS 3 Zrotation Yrotation Xrotation
						JOINT RightForeArm
						{
							OFFSET -5.241900 -0.000000 -0.000000
							CHANNELS 3 Zrotation Yrotation Xrotation
							JOINT RightHand
							{
								OFFSET -3.444170 -0.000000 -0.000000
								CHANNELS 3 Zrotation Yrotation Xrotation
								JOINT RightFingerBase
								{
									OFFSET 0.000000 0.000000 0.000000
									CHANNELS 3 Zrotation Yrotation Xrotation
									JOINT RightHandIndex1
									{
										OFFSET -0.622530 -0.000000 -0.000000
										CHANNELS 3 Zrotation Yrotation Xrotation
										End Site
										{
											OFFSET 0.000000 0.000000 0.000000
										}
									}
								}
								JOINT RThumb
								{
									OFFSET 0.000000 0.000000 0.000000
									CHANNELS 3 Zrotation Yrotation Xrotation
									End Site
									{
										OFFSET 0.000000 0.000000 0.000000
									}
								}
							}
						}
					}
				}
			}
		}
	}
}
MOTION
Frames: 12
Frame Time: 0.008333
13.575200 17.312127 2.013193 -162.635744 -84.455478 -177.786315 -12.073938 6.686135 1.194606 -4.658567 14.579577 2.724114 -0.752719 1.065788 15.648940 1.778069 12.070832 20.141099 4.952700 0.000000 -37.258300 7.756286 -1.393920 6.478252 14.738406 14.065842 -37.987563 2.358095 -0.832585 25.011317 -0.520562 -1.681129 -2.932863 -0.705500 0.000000 -32.428500 3.602326 -7.569842 -8.970736 1.621601 -7.957018 -4.571258 -2.815122 -8.229406 0.566870 9.694844 -26.991653 -10.418477 -1.485336 -0.079121 -0.599170 0.000000 0.000000 0.000000 15.917407 -1.768355 -4.034752 -87.632563 -13.770804 31.158119 178.829875 -62.983921 179.814965 16.120916 -20.905398 -3.282209 -0.445091 1.451490 -0.000000 0.000000 0.000000 0.000000 0.000000 0.000000 0.000000 1.248980 -26.191600 -1.048359 55.770655 -9.867790 14.616408 179.477650 64.441335 179.928339 -15.659435 25.749945 -3.805977 0.321861 -0.907048 0.000000 0.000000 0.000000 0.000000 0.000000 0.000000 0.000000 
13.352598 17.227854 1.982864 -167.271071 -84.267283 -173.576391 -12.169371 6.685333 1.052643 -4.521870 14.944168 2.564660 -0.656543 1.184611 18.448518 1.922201 13.303296 19.102266 5.299701 -0.000000 -36.228500 7.659484 -1.344059 6.308003 14.833478 14.153495 -37.703287 2.164649 -0.999668 27.732574 -0.755378 -2.121036 -5.356537 -0.542900 -0.000000 -27.615800 3.078222 -7.714285 -8.713158 1.525089 -8.049094 -4.505640 -2.871100 -8.319862 0.531078 9.905767 -26.794996 -10.359153 -1.543754 -0.084875 -0.582392 0.000000 0.000000 0.000000 15.558854 -1.875123 -3.963128 -87.682872 -12.834485 30.728777 178.783449 -62.821872 179.812591 16.261631 -20.775366 -3.290261 -0.446930 1.446294 -0.000000 0.000000 0.000000 0.000000 0.000000 0.000000 0.000000 1.496129 -26.036990 -1.143985 56.210514 -8.818985 14.908158 179.470718 64.106638 179.925735 -15.994856 25.689538 -3.882517 0.334413 -0.920648 0.000000 0.000000 0.000000 0.000000 0.000000 0.000000 0.000000 
13.131890 17.134858 1.951676 -171.777808 -84.128961 -169.553032 -12.259095 6.664120 0.873885 -4.291246 15.528479 2.325291 -0.565460 1.308175 21.389382 2.038195 14.248879 18.139615 5.500899 0.000000 -35.754201 7.602643 -1.311307 6.121972 14.881846 14.111159 -37.395269 1.997678 -1.181852 30.606248 -0.964516 -2.348672 -8.010031 -0.300299 -0.000000 -22.939700 2.514831 -7.869728 -8.408158 1.420569 -8.151376 -4.426879 -2.954230 -8.419157 0.491565 10.153239 -26.524927 -10.295299 -1.617580 -0.091918 -0.564787 0.000000 0.000000 0.000000 15.139405 -1.927138 -3.871953 -87.692494 -11.850399 30.213324 178.753224 -62.720072 179.810673 16.390290 -20.747814 -3.311399 -0.447749 1.442985 -0.000000 0.000000 0.000000 0.000000 0.000000 0.000000 0.000000 1.838732 -25.809197 -1.251327 56.762060 -7.705382 15.255992 179.463228 63.797186 179.922971 -16.318483 25.646200 -3.958842 0.346911 -0.935415 0.000000 0.000000 0.000000 0.000000 0.000000 0.000000 0.000000 
12.912957 17.034519 1.920446 -175.802301 -84.006197 -166.052256 -12.330150 6.624174 0.661009 -3.945587 16.313673 1.989591 -0.478170 1.437102 24.467280 2.131139 14.972450 17.210253 5.587300 -0.000000 -35.691600 7.597702 -1.294720 5.929438 14.926162 13.945498 -37.046795 1.868901 -1.372660 33.517618 -1.144429 -2.389688 -10.801049 -0.014200 0.000000 -18.598500 1.964948 -8.017484 -8.063608 1.314075 -8.250666 -4.338437 -3.070567 -8.513326 0.443948 10.435592 -26.167703 -10.223030 -1.708971 -0.100501 -0.545358 0.000000 0.000000 0.000000 14.661003 -1.917708 -3.758229 -87.666467 -10.811158 29.603103 178.737851 -62.696146 179.809111 16.523669 -20.826823 -3.350029 -0.447838 1.441037 0.000000 0.000000 0.000000 0.000000 0.000000 0.000000 0.000000 2.282967 -25.483816 -1.366802 57.427539 -6.544366 15.648014 179.454921 63.520234 179.920060 -16.624138 25.622937 -4.034062 0.359127 -0.951318 0.000000 0.000000 0.000000 0.000000 0.000000 0.000000 0.000000 
12.695760 16.928578 1.890118 -179.036094 -83.855773 -163.360040 -12.381482 6.572342 0.420941 -3.482354 17.266087 1.531808 -0.397533 1.574652 27.679895 2.208641 15.550480 16.256874 5.586700 -0.000000 -35.817700 7.642651 -1.290376 5.740086 15.002213 13.679453 -36.646639 1.780799 -1.563210 36.357192 -1.294717 -2.283410 -13.610663 0.276800 0.000000 -15.029300 1.472526 -8.136039 -7.695461 1.209172 -8.329257 -4.245350 -3.224684 -8.583954 0.385762 10.748645 -25.711452 -10.138393 -1.819348 -0.110806 -0.523070 0.000000 0.000000 0.000000 14.122707 -1.834545 -3.619662 -87.607758 -9.711368 28.891317 178.734783 -62.764572 179.807757 16.686541 -21.008308 -3.410851 -0.447795 1.439513 0.000000 0.000000 0.000000 0.000000 0.000000 0.000000 0.000000 2.830926 -25.036580 -1.486646 58.208191 -5.345921 16.076542 179.445137 63.286682 179.917053 -16.900562 25.621262 -4.105680 0.370734 -0.968303 0.000000 0.000000 0.000000 0.000000 0.000000 0.000000 0.000000 
12.480077 16.819159 1.861597 178.703270 -83.641705 -161.633388 -12.420166 6.515636 0.167289 -2.926309 18.322758 0.934151 -0.324835 1.723860 31.006523 2.280995 16.079292 15.247117 5.535300 -0.000000 -36.057200 7.722256 -1.294358 5.559772 15.135144 13.335032 -36.191488 1.733961 -1.743361 39.046617 -1.419806 -2.052319 -16.400878 0.548200 0.000000 -12.015900 1.064291 -8.208042 -7.324297 1.107156 -8.371529 -4.153298 -3.419202 -8.615097 0.315630 11.086359 -25.146570 -10.037217 -1.949682 -0.122968 -0.496788 0.000000 0.000000 0.000000 13.522761 -1.668627 -3.455327 -87.516573 -8.543621 28.070587 178.741227 -62.933728 179.806540 16.898189 -21.285877 -3.497477 -0.448026 1.437362 0.000000 0.000000 0.000000 0.000000 0.000000 0.000000 0.000000 3.482713 -24.446722 -1.607122 59.102963 -4.117532 16.537810 179.432962 63.111089 179.914040 -17.131737 25.641847 -4.170104 0.381267 -0.986228 0.000000 0.000000 0.000000 0.000000 0.000000 0.000000 0.000000 
12.265824 16.708507 1.835701 177.520820 -83.338282 -160.950916 -12.455677 6.458708 -0.087041 -2.307584 19.427145 0.166424 -0.261991 1.888518 34.437532 2.354335 16.620385 14.132757 5.446500 -0.000000 -36.206700 7.817434 -1.305538 5.398286 15.340657 12.948861 -35.686072 1.721728 -1.904521 41.511584 -1.526293 -1.737362 -19.087727 0.779600 -0.000000 -9.740600 0.761270 -8.220436 -6.974517 1.009983 -8.365652 -4.068020 -3.653502 -8.595069 0.235372 11.440382 -24.470041 -9.917322 -2.099109 -0.136917 -0.465911 0.000000 0.000000 0.000000 12.860108 -1.406802 -3.266307 -87.392988 -7.309032 27.140566 178.754388 -63.209167 179.805403 17.181515 -21.643677 -3.612923 -0.449143 1.433207 0.000000 0.000000 0.000000 0.000000 0.000000 0.000000 0.000000 4.232632 -23.703361 -1.725825 60.108142 -2.857970 17.034353 179.417824 63.011991 179.911126 -17.300342 25.684047 -4.222842 0.390174 -1.004853 -0.000000 0.000000 0.000000 0.000000 0.000000 0.000000 0.000000 
12.052780 16.599078 1.812960 177.377138 -82.934416 -161.247226 -12.493376 6.402308 -0.328141 -1.668926 20.514206 -0.795391 -0.207629 2.070847 37.953758 2.432770 17.215053 12.882697 5.325300 -0.000000 -36.117200 7.911128 -1.324601 5.263963 15.624402 12.554176 -35.139601 1.738417 -2.040830 43.701880 -1.622001 -1.368967 -21.634134 0.963900 -0.000000 -8.068600 0.575726 -8.166404 -6.668942 0.919708 -8.305463 -3.994375 -3.924466 -8.518158 0.148027 11.801619 -23.683919 -9.777697 -2.265726 -0.152469 -0.430147 0.000000 0.000000 0.000000 12.138047 -1.040768 -3.055834 -87.236857 -6.009529 26.103392 178.771939 -63.590520 179.804410 17.548531 -22.062220 -3.757910 -0.451373 1.425662 0.000000 0.000000 0.000000 0.000000 0.000000 0.000000 0.000000 5.072183 -22.803955 -1.841071 61.215837 -1.564191 17.571829 179.399379 63.008177 179.908429 -17.389783 25.746784 -4.259500 0.396882 -1.023864 -0.000000 0.000000 0.000000 0.000000 0.000000 0.000000 0.000000 
11.840895 16.493275 1.793563 178.116019 -82.431377 -162.345286 -12.533164 6.343434 -0.543904 -1.058463 21.520594 -1.972325 -0.157723 2.271339 41.531359 2.517601 17.873785 11.479892 5.165000 -0.000000 -35.675800 7.992109 -1.353545 5.164340 15.981823 12.181923 -34.563179 1.778619 -2.149799 45.580140 -1.713318 -0.975014 -24.007906 1.101100 0.000000 -6.835900 0.513138 -8.044185 -6.426509 0.838466 -8.189574 -3.935815 -4.226399 -8.383533 0.058262 12.160865 -22.796963 -9.619580 -2.446386 -0.169293 -0.389834 0.000000 0.000000 0.000000 11.365502 -0.564418 -2.829399 -87.048693 -4.652534 24.968139 178.792208 -64.072804 179.803703 18.002921 -22.517002 -3.930358 -0.454710 1.413423 -0.000000 0.000000 0.000000 0.000000 0.000000 0.000000 0.000000 5.989837 -21.755840 -1.952055 62.414255 -0.230995 18.157670 179.377704 63.116886 179.906070 -17.387663 25.827853 -4.276485 0.400916 -1.042891 -0.000000 0.000000 0.000000 0.000000 0.000000 0.000000 0.000000 
11.630080 16.393484 1.777365 179.488961 -81.841593 -163.978605 -12.571868 6.276468 -0.724222 -0.527957 22.386402 -3.379488 -0.105787 2.487608 45.140085 2.607936 18.580438 9.925915 4.952001 -0.000000 -34.835100 8.054406 -1.395994 5.105304 16.396756 11.857615 -33.968025 1.837378 -2.231898 47.119824 -1.802900 -0.577458 -26.171861 1.194800 0.000000 -6.005500 0.567640 -7.856788 -6.261774 0.767122 -8.020723 -3.894331 -4.552027 -8.194448 -0.028061 12.510361 -21.822445 -9.446532 -2.637007 -0.186957 -0.345971 0.000000 0.000000 0.000000 10.559210 0.025911 -2.594035 -86.828894 -3.249882 23.751514 178.814482 -64.646980 179.803498 18.537774 -22.979817 -4.125187 -0.458868 1.395439 -0.000000 0.000000 0.000000 0.000000 0.000000 0.000000 0.000000 6.971563 -20.573022 -2.058486 63.687979 1.144835 18.798898 179.353375 63.347975 179.904151 -17.288075 25.923829 -4.271400 0.402016 -1.061607 -0.000000 0.000000 0.000000 0.000000 0.000000 0.000000 0.000000 
11.420285 16.301860 1.763916 -178.764606 -81.184917 -165.875842 -12.606992 6.194665 -0.862429 -0.120415 23.063375 -5.024694 -0.044873 2.714825 48.744946 2.700702 19.294724 8.235198 4.669700 0.000001 -33.581699 8.094077 -1.454933 5.089691 16.847543 11.601892 -33.360416 1.912329 -2.288791 48.307181 -1.891934 -0.188035 -28.116575 1.251800 -0.000000 -5.305400 0.724944 -7.609836 -6.182805 0.705403 -7.803769 -3.870821 -4.891968 -7.956271 -0.105988 12.841704 -20.779740 -9.263138 -2.832711 -0.204971 -0.299842 0.000000 0.000000 0.000000 9.742940 0.723278 -2.357819 -86.580033 -1.810072 22.472985 178.837622 -65.293601 179.804033 19.128624 -23.425109 -4.333315 -0.463017 1.371323 -0.000000 0.000000 0.000000 0.000000 0.000000 0.000000 0.000000 7.996986 -19.276975 -2.158965 65.019209 2.565391 19.502585 179.327164 63.708601 179.902759 -17.094510 26.032909 -4.244343 0.400218 -1.079718 -0.000000 0.000000 0.000000 0.000000 0.000000 0.000000 0.000000 
11.211425 16.220303 1.752566 -176.904095 -80.487435 -167.771068 -12.638605 6.091572 -0.953947 0.126629 23.511379 -6.907059 0.031244 2.945589 52.305210 2.791804 19.966779 6.437456 4.307300 -0.000000 -31.990500 8.108674 -1.532922 5.117485 17.303521 11.427808 -32.745135 2.000320 -2.322577 49.136431 -1.977463 0.187697 -29.817468 1.276600 -0.000000 -4.714000 0.957859 -7.310641 -6.193525 0.650501 -7.544392 -3.865121 -5.237374 -7.675038 -0.170422 13.149675 -19.689462 -9.075625 -3.028593 -0.222849 -0.253186 0.000000 0.000000 0.000000 8.944906 1.520838 -2.128320 -86.302186 -0.347202 21.163893 178.861621 -65.993650 179.805476 19.749607 -23.825090 -4.543548 -0.466530 1.341105 -0.000000 0.000000 0.000000 0.000000 0.000000 0.000000 0.000000 9.045658 -17.890899 -2.252186 66.387340 4.026928 20.270035 179.300181 64.192734 179.901941 -16.819685 26.152381 -4.197708 0.395919 -1.097088 -0.000000 0.000000 0.000000 0.000000 0.000000 0.000000 0.000000 
